<?xml version="1.0" encoding="UTF-8" standalone="no"?>
<!-- Created with Inkscape (http://www.inkscape.org/) -->

<svg
   xmlns:osb="http://www.openswatchbook.org/uri/2009/osb"
   xmlns:dc="http://purl.org/dc/elements/1.1/"
   xmlns:cc="http://creativecommons.org/ns#"
   xmlns:rdf="http://www.w3.org/1999/02/22-rdf-syntax-ns#"
   xmlns:svg="http://www.w3.org/2000/svg"
   xmlns="http://www.w3.org/2000/svg"
   xmlns:sodipodi="http://sodipodi.sourceforge.net/DTD/sodipodi-0.dtd"
   xmlns:inkscape="http://www.inkscape.org/namespaces/inkscape"
   width="240"
   height="240"
   id="svg2"
   version="1.1"
   inkscape:version="0.48.1 "
   sodipodi:docname="Foxcoon_PSN.svg"
   style="display:inline"
   inkscape:export-filename="C:\Users\PHR\Desktop\BlackCat_PSN.png"
   inkscape:export-xdpi="600"
   inkscape:export-ydpi="600">
  <defs
     id="defs4">
    <linearGradient
       id="linearGradient5233"
       osb:paint="solid">
      <stop
         style="stop-color:#000000;stop-opacity:1;"
         offset="0"
         id="stop5235" />
    </linearGradient>
  </defs>
  <sodipodi:namedview
     id="base"
     pagecolor="#00c000"
     bordercolor="#666666"
     borderopacity="1.0"
     inkscape:pageopacity="0"
     inkscape:pageshadow="2"
     inkscape:zoom="2.1541667"
     inkscape:cx="115.58994"
     inkscape:cy="120"
     inkscape:document-units="px"
     inkscape:current-layer="layer3"
     showgrid="false"
     fit-margin-top="0"
     fit-margin-left="0"
     fit-margin-right="0"
     fit-margin-bottom="0"
     inkscape:window-width="1366"
     inkscape:window-height="706"
     inkscape:window-x="-8"
     inkscape:window-y="-8"
     inkscape:window-maximized="1">
    <inkscape:grid
       type="xygrid"
       id="grid3774"
       empspacing="5"
       visible="true"
       enabled="true"
       snapvisiblegridlinesonly="true" />
  </sodipodi:namedview>
  <metadata
     id="metadata7">
    <rdf:RDF>
      <cc:Work
         rdf:about="">
        <dc:format>image/svg+xml</dc:format>
        <dc:type
           rdf:resource="http://purl.org/dc/dcmitype/StillImage" />
        <dc:title></dc:title>
      </cc:Work>
    </rdf:RDF>
  </metadata>
  <g
     inkscape:groupmode="layer"
     id="layer3"
     inkscape:label="Layer 2"
     style="display:inline">
    <path
       transform="translate(-197.14287,-483.79074)"
       style="fill:#ffffff;fill-opacity:1;display:inline"
       d="m 299.64287,702.3318 c -9.38392,-1.71382 -24.18297,-5.80507 -36.71869,-10.15101 -13.8179,-4.79045 -34.78131,-13.43256 -34.78131,-14.3385 0,-0.40178 1.125,-1.2431 2.5,-1.8696 1.375,-0.62649 2.5,-1.54262 2.5,-2.03583 0,-0.49322 -5.9625,-4.66537 -13.25,-9.27144 l -13.25,-8.37468 10.27626,-0.28527 10.27627,-0.28528 -9.77627,-8.21472 -9.77626,-8.21473 11,-0.5 11,-0.5 2.90933,-23.05579 2.90934,-23.05579 -16.99883,-38.44421 c -9.34935,-21.14431 -16.62734,-38.59212 -16.17329,-38.77289 0.45404,-0.18077 15.56931,6.31246 33.58949,14.4294 18.02018,8.11695 33.43896,14.70171 34.26396,14.63281 0.825,-0.0689 14.28749,-3.97464 29.91664,-8.67942 15.62915,-4.70479 28.65153,-8.31928 28.93861,-8.03219 0.28708,0.28707 -0.45706,2.53709 -1.65365,5.00002 -1.19658,2.46293 -1.8428,4.47806 -1.43603,4.47806 0.40677,0 5.43595,-1.78997 11.17596,-3.97771 5.74001,-2.18775 10.59541,-3.81868 10.78979,-3.62431 0.19437,0.19438 -0.79066,2.94034 -2.18896,6.10215 -1.3983,3.1618 -2.54236,6.0532 -2.54236,6.42533 0,0.37213 4.76302,1.44276 10.58449,2.37918 l 10.58449,1.70257 33.08381,-15.00197 c 18.1961,-8.25108 33.24958,-14.8362 33.45219,-14.63359 0.20261,0.2026 -5.49813,17.57132 -12.6683,38.59715 -7.17018,21.02584 -13.03668,39.4099 -13.03668,40.85347 0,1.44358 1.18797,11.28454 2.63993,21.8688 l 2.63993,19.24411 10.61007,0.28241 10.61007,0.28241 -9.93833,7.25 -9.93832,7.25 8.18832,0 c 4.50358,0 8.18477,0.3375 8.18042,0.75 -0.004,0.4125 -5.02811,3.64676 -11.16391,7.18725 -12.10346,6.98395 -12.19301,7.29656 -2.45754,8.57958 2.73675,0.36068 4.4892,1.01944 4,1.50365 -1.45961,1.4447 -28.28303,13.50182 -42.99989,19.32843 -33.31559,13.19011 -55.12157,16.98166 -75.87075,13.19215 z"
       id="path5450"
       inkscape:connector-curvature="0" />
    <path
       style="fill:#000000;display:inline"
       d="M 110.24236,214.92203 C 96.061591,213.22255 72.667188,206.5601 50.25,197.83691 44.6125,195.6432 40,193.48735 40,193.04614 c 0,-0.44121 0.920458,-1.41958 2.045461,-2.17417 1.910269,-1.28129 1.212131,-1.83231 -10.562792,-8.33686 -14.23752,-7.8649 -14.268747,-8.35051 -0.544343,-8.46482 L 39.376652,174 29.438326,166.75 19.5,159.5 l 8.132709,-0.28855 c 7.96127,-0.28246 8.143499,-0.3457 8.6445,-3 0.281484,-1.4913 1.988573,-12.68767 3.79353,-24.88082 L 43.35248,109.16126 26.714343,73.375859 C 17.563367,53.693891 10.249105,37.417561 10.460428,37.206239 10.67175,36.994917 24.431714,43.210176 41.038126,51.017925 l 30.193475,14.195909 26.6342,-7.246183 c 14.648809,-3.9854 27.238609,-7.472741 27.977339,-7.749646 0.91346,-0.342402 0.66702,0.821831 -0.77032,3.639265 C 123.91041,56.135772 123.3799,58 123.8939,58 c 0.51399,0 5.06174,-1.575 10.1061,-3.5 5.04436,-1.925 9.59211,-3.5 10.1061,-3.5 0.514,0 -0.006,1.843607 -1.15554,4.096905 -1.14954,2.253298 -1.91063,4.276357 -1.6913,4.495686 0.66361,0.663614 23.05708,5.500355 25.74074,5.559715 1.375,0.03042 15.516,-6.062914 31.42444,-13.540729 15.90844,-7.477816 29.05212,-13.468353 29.20816,-13.312306 0.15605,0.156047 -5.31793,16.263764 -12.16439,35.794926 l -12.44811,35.511203 3.27924,23.86407 3.27925,23.86408 7.2107,-0.23387 C 220.75518,156.97105 224,157.0333 224,157.238 c 0,0.20471 -3.79366,3.04021 -8.43036,6.30112 -5.36594,3.77378 -8.0013,6.20179 -7.25,6.67959 0.6492,0.41287 4.33036,0.77065 8.18036,0.79508 l 7,0.0444 -11.97946,6.41423 c -7.07479,3.7881 -11.37374,6.62452 -10.5,6.92785 0.8137,0.28249 3.05446,0.90858 4.97946,1.39131 l 3.5,0.87768 -6.01478,3.06102 c -10.33582,5.26007 -31.52317,13.85213 -44.51835,18.05342 -20.40538,6.59699 -35.1801,8.76154 -48.72451,7.13832 z m 22.29286,-29.90091 c 10.39085,-5.05315 12.91541,-9.6276 6.74041,-12.21347 -3.81368,-1.59703 -29.58582,-1.59599 -34.98341,0.001 -7.089167,2.09802 -6.789582,4.3388 1.29778,9.70689 10.88664,7.22614 16.21816,7.72182 26.94522,2.50516 z M 106.30687,163.2134 c 2.37287,-2.62198 4.84062,-9.00421 3.7437,-9.68215 C 109.08276,152.93311 94.294383,148 93.469103,148 c -1.923695,0 1.817563,11.32685 4.871926,14.75 2.415401,2.70704 5.759331,2.90157 7.965841,0.4634 z m 34.47109,-0.47705 c 1.16962,-1.245 2.82306,-3.93055 3.67431,-5.96788 1.53789,-3.68068 2.09083,-8.76847 0.95297,-8.76847 -1.49816,0 -15.00637,4.35188 -15.82314,5.09767 -1.4202,1.29678 1.17082,8.61586 3.66971,10.36615 3.0261,2.11957 5.03381,1.9255 7.52615,-0.72747 z M 48.311738,87.176676 C 46.2344,86.664642 46.763145,85.571129 50.017637,83.648653 53.213314,81.76092 53.176319,80 49.940983,80 c -3.328446,0 -2.135635,-1.363747 4.678836,-5.349336 3.61983,-2.117135 6.19871,-4.202385 5.730845,-4.633887 C 58.557486,68.362963 23.865001,50.801665 23.369642,51.297024 22.925282,51.741385 33.53988,71.844806 44.323569,90.982522 l 3.089283,5.482521 1.105312,-4.482521 C 49.39976,88.407264 49.35798,87.434559 48.311738,87.176676 z M 208.4636,72.169288 c 4.23957,-11.181892 7.55713,-20.481882 7.37235,-20.666645 -0.18477,-0.184762 -8.77379,4.239058 -19.0867,9.830713 L 177.9985,71.5 l 8.59405,1 8.59405,1 -2.56248,2.39536 C 189.70459,78.624488 190.01788,80 193.55902,80 c 2.9481,0 3.01124,0.614862 0.46051,4.48459 l -1.96728,2.984589 3.68146,3.770163 c 2.55001,2.611445 3.8874,3.384529 4.35152,2.51541 0.36853,-0.690113 4.1388,-10.403572 8.37837,-21.585464 z"
       id="path5300"
       inkscape:connector-curvature="0" />
  </g>
</svg>
